<svg xmlns="http://www.w3.org/2000/svg" viewBox="0 0 128 128"> <rect width="128" height="128" rx="24" fill="#1e293b"/> <path d="M34 32C34 28 37 26 41 26H64V102H41C37 102 34 100 34 96V32Z" fill="#3b82f6"/> <path d="M94 32C94 28 91 26 87 26H64V102H87C91 102 94 100 94 96V32Z" fill="#60a5fa"/> <path d="M64 26V102" stroke="white" stroke-width="3"/> <path d="M42 40H56" stroke="white" stroke-width="3" stroke-linecap="round"/> <path d="M42 52H56" stroke="white" stroke-width="3" stroke-linecap="round"/> <path d="M72 40H86" stroke="white" stroke-width="3" stroke-linecap="round"/> <path d="M72 52H86" stroke="white" stroke-width="3" stroke-linecap="round"/> <circle cx="64" cy="82" r="10" fill="white"/> <path d="M64 76V88M58 82H70" stroke="#3b82f6" stroke-width="3" stroke-linecap="round"/> </svg>