<svg t="1745925784300" class="icon" viewBox="0 0 1024 1024" version="1.1" xmlns="http://www.w3.org/2000/svg" p-id="5234" width="200" height="200"><path d="M512 23.272727C242.036364 23.272727 23.272727 242.036364 23.272727 512S242.036364 1000.727273 512 1000.727273 1000.727273 781.963636 1000.727273 512 781.963636 23.272727 512 23.272727zM772.654545 791.272727H256c-18.618182 0-27.927273-18.618182-18.618182-32.581818 41.890909-69.818182 121.018182-121.018182 214.109091-134.981818v-55.854546c-4.654545 0-9.309091-4.654545-13.963636-9.30909-27.927273-18.618182-32.581818-69.818182-41.890909-79.127273-32.581818-4.654545-51.2-65.163636-9.309091-74.472727C353.745455 228.072727 512 232.727273 512 232.727273s153.6-4.654545 125.672727 172.218182c55.854545 4.654545 32.581818 69.818182-9.309091 74.472727-9.309091 9.309091-18.618182 60.509091-41.890909 79.127273 0 0-4.654545 4.654545-9.309091 4.654545v55.854545c93.090909 13.963636 172.218182 65.163636 214.109091 134.981819 4.654545 18.618182-4.654545 37.236364-18.618182 37.236363z" fill="#6F869F" p-id="5235"></path></svg>