<?xml version="1.0" encoding="UTF-8"?>
<svg xmlns="http://www.w3.org/2000/svg" xmlns:xlink="http://www.w3.org/1999/xlink" width="1200px" height="800px" viewBox="0 0 1200 800" version="1.1">
<g id="surface1">
<path style=" stroke:none;fill-rule:nonzero;fill:rgb(88.627451%,9.411765%,21.176471%);fill-opacity:1;" d="M 235 0 L 535 0 C 554.078125 -0.949219 572.40625 7.554688 583.996094 22.742188 C 595.585938 37.925781 598.953125 57.847656 593 76 L 453.5 676 C 442.003906 718.757812 403.761719 748.863281 359.5 750 L 59.5 750 C 40.476562 751.109375 22.109375 742.882812 10.265625 727.957031 C -1.574219 713.03125 -5.40625 693.269531 0 675 L 139.5 75 C 150.773438 31.320312 189.894531 0.597656 235 0 "/>
<path style=" stroke:none;fill-rule:nonzero;fill:rgb(0%,26.666667%,48.627451%);fill-opacity:1;" d="M 509.5 0 L 854 0 C 896 0 877 34 867 76 L 727.5 676 C 718 717.5 721 751.5 677.5 751.5 L 334.5 751.5 C 315.378906 752.269531 297.089844 743.640625 285.53125 728.390625 C 273.96875 713.140625 270.597656 693.203125 276.5 675 L 416 75 C 427.070312 32.023438 465.144531 1.480469 509.5 0 "/>
<path style=" stroke:none;fill-rule:nonzero;fill:rgb(0%,48.235294%,51.764706%);fill-opacity:1;" d="M 840.5 0 L 1140.5 0 C 1159.835938 -1.476562 1178.632812 6.808594 1190.589844 22.078125 C 1202.542969 37.347656 1206.074219 57.582031 1200 76 L 1060.5 676 C 1048.847656 719.28125 1009.820312 749.523438 965 750 L 665 750 C 646.039062 750.890625 627.84375 742.449219 616.28125 727.398438 C 604.71875 712.347656 601.253906 692.589844 607 674.5 L 746.5 74.5 C 757.808594 31.546875 796.097656 1.199219 840.5 0 "/>
<path style=" stroke:none;fill-rule:nonzero;fill:rgb(99.607843%,99.607843%,99.607843%);fill-opacity:1;" d="M 313 192 C 298.855469 193.074219 284.644531 193.074219 270.5 192 C 270.5 197.5 248.5 292 248.5 292 C 247.089844 307.742188 240.394531 322.546875 229.5 334 C 223.464844 339.394531 215.589844 342.257812 207.5 342 C 201.761719 342.554688 196.050781 340.726562 191.699219 336.945312 C 187.351562 333.160156 184.746094 327.757812 184.5 322 L 184.5 318.5 L 188.5 292 C 188.5 292 210.5 205 214.5 192 C 197.886719 193.867188 181.113281 193.867188 164.5 192 C 164.609375 194.164062 164.609375 196.335938 164.5 198.5 L 142.5 298.5 L 142.5 307 L 139 334 C 138.125 339.316406 138.296875 344.75 139.5 350 C 149.5 368 178.5 370.5 195 370.5 C 213.988281 371.839844 232.988281 368.039062 250 359.5 C 268.476562 347.050781 280.96875 327.5 284.5 305.5 L 287 296 C 287 296 309.5 205 313.5 193 Z M 389.5 265 C 381.167969 265.296875 372.992188 267.339844 365.5 271 L 356 276 L 359 266 C 340 270 335.5 270.5 318.5 273 C 315.957031 294.050781 312.117188 314.921875 307 335.5 L 298 372 C 310.988281 371.265625 324.011719 371.265625 337 372 L 343.5 339 C 343.5 329.5 350 308 352 300.5 C 355.621094 298.722656 359.503906 297.539062 363.5 297 C 372 297 371 304.5 371 307.5 C 371 310.5 367 329.5 364 343.5 L 364 352.5 C 364 359.5 360.5 366 359 373 C 371.65625 372.261719 384.34375 372.261719 397 373 C 400 354.5 400 350 405 327 L 407.5 316.5 C 412 296 414.5 285.5 411 277 C 407.175781 268.777344 398.507812 263.9375 389.5 265 Z M 475 286.5 L 454 290.5 L 433 293.5 L 430 313 C 428.648438 322.089844 426.8125 331.105469 424.5 340 C 424.5 348.5 421.5 351.5 420.5 355 C 418.40625 359.675781 416.730469 364.527344 415.5 369.5 L 457.5 369.5 C 457.5 362 457.5 359.5 457.5 356 C 457.5 352.5 457.5 346 463 331 C 463 323.5 466.5 316.5 468 309.5 C 469.5 302.5 471.5 295 473 288 Z M 475 257.5 C 464 252.664062 451.261719 253.996094 441.5 261 C 431.5 268 430 277.5 438.5 282.5 C 449.5 287.335938 462.238281 286.003906 472 279 C 482.5 272 483.5 262.5 475.5 257.5 Z M 525 373.5 C 543.554688 374.832031 561.78125 368.089844 575 355 C 582.917969 344.449219 588.539062 332.355469 591.5 319.5 C 596.457031 306.101562 594.984375 291.167969 587.5 279 C 577.6875 269.089844 563.839844 264.289062 550 266 C 533.574219 265.242188 517.476562 270.785156 505 281.5 C 494.414062 292.085938 487.417969 305.726562 485 320.5 C 481.5 334.5 478 360.5 501.5 370.5 C 509.574219 373.046875 518.050781 374.066406 526.5 373.5 Z M 525 323.5 C 529 306 533.5 291.5 545.5 291.5 C 557.5 291.5 555.5 302.5 551.5 320 C 549.742188 328.570312 546.707031 336.828125 542.5 344.5 C 540.265625 348.636719 536.164062 351.429688 531.5 352 C 531.5 352 522.5 352 522.5 341 C 522.625 334.394531 523.632812 327.835938 525.5 321.5 Z M 634 373.5 L 640.5 340.5 C 640.5 331 647 309.5 649 302 C 652.59375 300.160156 656.488281 298.972656 660.5 298.5 C 669 298.5 668 306 667.5 309 C 666.027344 321.113281 663.855469 333.136719 661 345 L 661 354 C 661 361 657.5 367.5 656 374.5 C 668.65625 373.769531 681.34375 373.769531 694 374.5 C 696.5 359 697.5 354.5 702.5 331.5 L 702.5 321 C 707.5 300.5 710 290 706.5 281.5 C 702.675781 273.277344 694.007812 268.4375 685 269.5 C 676.660156 269.734375 668.46875 271.78125 661 275.5 L 651.5 281 L 654 270.5 C 635 274.5 630.5 275 613 277.5 C 610.457031 298.550781 606.617188 319.421875 601.5 340 C 598.5 352 595.5 364.5 593 376.5 C 605.988281 375.765625 619.011719 375.765625 632 376.5 Z M 763.5 373.5 L 771 336 C 771 336 777 312.5 777 311.5 L 780.5 308.5 L 783.5 308.5 C 809.085938 311.253906 834.875 305.640625 857 292.5 C 872.191406 280.914062 882.671875 264.21875 886.5 245.5 C 887.265625 240.195312 887.265625 234.804688 886.5 229.5 C 886.902344 222.027344 884.789062 214.632812 880.5 208.5 C 869.5 193 847.5 192.5 822 192.5 L 809.5 192.5 C 777 192.5 764 192.5 759.5 192.5 C 755 192.5 759.5 199 759.5 199 L 750 250 C 750 250 722.5 365 721 370.5 C 750 371.5 759 371.5 764 372 Z M 785 277.5 L 800 222.5 L 800 217.5 L 831 217.5 C 841.597656 222.089844 846.675781 234.234375 842.5 245 C 840.074219 256.625 832.542969 266.539062 822 272 C 812.949219 275.582031 803.214844 277.121094 793.5 276.5 L 785 276.5 Z M 862.5 324 C 859 338 855.5 363.5 878.5 374 C 885.445312 376.265625 892.875 376.613281 900 375 C 907.433594 374.121094 914.414062 370.980469 920 366 L 920 372 L 960 372 C 963 356 965.5 341 972.5 311 C 975.5 297 979 282.5 982.5 268.5 L 940.5 275 L 940.5 279.5 C 937.523438 274.476562 932.945312 270.601562 927.5 268.5 C 911.421875 266.554688 895.394531 272.515625 884.5 284.5 C 874.035156 294.972656 867.050781 308.414062 864.5 323 Z M 902 324 C 906 307 910.5 292 922.5 292 C 934.5 292 934 299 933 311 C 933.1875 314.164062 933.1875 317.335938 933 320.5 C 931.960938 325.738281 930.625 330.914062 929 336 C 928.164062 339.195312 926.8125 342.238281 925 345 C 921.167969 349.289062 915.746094 351.820312 910 352 C 910 352 900 350 900 340.5 C 900.132812 334.753906 900.972656 329.042969 902.5 323.5 Z M 1108 267 C 1089.5 270.5 1086 271.5 1069 273.5 C 1056 302.5 1056.5 296.5 1046 319.5 L 1046 316.5 L 1043.5 266.5 C 1024 270 1023.5 271 1005.5 273 C 1005.5 284.5 1005.5 282 1009.5 300 C 1009.5 309 1009.5 318 1013 327 C 1016.5 336 1015.5 349 1017.5 371 C 1005.5 391.5 1002.5 399 991 416.5 L 983 429.5 C 982.269531 430.738281 981.238281 431.769531 980 432.5 L 970 432.5 L 963 455 L 986.5 455 C 997.519531 455.660156 1007.894531 449.785156 1013 440 L 1028 415 C 1038 394 1113 265 1113 265 Z M 862.5 563.5 L 852.5 563.5 L 889 442.5 L 900 442.5 L 904 430 L 904 444 C 904 452.5 910 460 928 459 L 950 459 L 957 435.5 L 950 435.5 C 945.5 435.5 943.5 435.5 944 432 L 944 417.5 L 905 417.5 C 893 417.5 855 417.5 849 420.5 C 842.386719 422.707031 836.148438 425.910156 830.5 430 L 834 417.5 L 800 417.5 L 792.5 442 L 755.5 564.5 L 748 564.5 L 741 588 L 811.5 588 L 811.5 595.5 L 846 595.5 L 848.5 588 L 858 588 L 866 563 Z M 833.5 467 C 827.847656 468.761719 822.335938 470.9375 817 473.5 L 826.5 442.5 L 854.5 442.5 L 850 464.5 C 845.175781 464.105469 840.324219 464.105469 835.5 464.5 Z M 833.5 511 L 818.5 511 C 813 511 802.5 518.5 802.5 518.5 L 812 486 L 840 486 L 833.5 508.5 Z M 817.5 561 L 789.5 561 L 797.5 534 L 825.5 534 Z M 885.5 486 L 926.5 486 L 920.5 505 L 880 505 L 874 526 L 910 526 L 883 564.5 C 881.457031 566.324219 879.59375 567.847656 877.5 569 C 875.03125 569.574219 872.46875 569.574219 870 569 L 860 569 L 853 591.5 L 879 591.5 C 890.113281 591.933594 900.675781 586.652344 907 577.5 L 925.5 552 L 929.5 578 C 930.390625 581.765625 932.976562 584.902344 936.5 586.5 C 939.148438 588.511719 942.230469 589.882812 945.5 590.5 L 967.5 590.5 L 975 565 L 970 565 C 967.035156 565.652344 963.964844 565.652344 961 565 C 960.8125 563.171875 960.8125 561.328125 961 559.5 L 957 533.5 L 940 533.5 L 947.5 525 L 988.5 525 L 995 504 L 957 504 L 962.5 485 L 1000 485 L 1007.5 462 L 893.5 462 L 886.5 485 Z M 542 566.5 L 551.5 535 L 590.5 535 L 597.5 511.5 L 558.5 511.5 L 564.5 492 L 602.5 492 L 609.5 469 L 515 469 L 508.5 492 L 530 492 L 524 511.5 L 502.5 511.5 L 495 535 L 517 535 L 504 577 C 504 582.5 504 584.5 506.5 587.5 C 508.136719 589.972656 510.628906 591.753906 513.5 592.5 L 567.5 592.5 L 575.5 566.5 L 556 569.5 C 550 572.5 542 572 543 568.5 Z M 546.5 416.5 L 536.5 434.5 C 535.265625 437.386719 533.382812 439.953125 531 442 C 528.046875 442.761719 524.953125 442.761719 522 442 L 517 442 L 510 464.5 L 527 464.5 C 533.101562 464.371094 539.09375 462.832031 544.5 460 C 548 460 548.5 460 551 457 L 557 452 L 610.5 452 L 617.5 428 L 578.5 428 L 585.5 415 Z M 625.5 566.5 C 625.5 566.5 625.5 563 625.5 558 L 640 508 L 709 508 C 713.375 507.445312 717.613281 506.089844 721.5 504 C 725.164062 501.964844 728.261719 499.042969 730.5 495.5 C 734.503906 489.152344 737.535156 482.242188 739.5 475 L 758 414 L 706 414 C 697.855469 415.128906 689.824219 416.96875 682 419.5 C 675.578125 422.628906 669.539062 426.488281 664 431 L 669 414 L 635.5 414 L 588.5 569 L 585.5 582 C 585.5 582 589.5 587.5 591.5 589.5 C 595.09375 590.527344 598.90625 590.527344 602.5 589.5 L 646.5 589.5 L 654.5 563 L 631.5 563 C 631.542969 565.960938 629.417969 568.507812 626.5 569 Z M 650 479.5 L 705 479.5 L 701.5 490 C 701.5 490 701.5 490 694 490 L 650 490 Z M 661 443 L 716 443 L 712 456 C 712 456 686.5 456 682 456 C 671.359375 457.71875 661.359375 462.199219 653 469 Z M 702.5 526.5 C 702.5 526.5 702.5 529.5 702.5 530 C 702.5 530.5 699.5 530 697 530 L 689 530 L 689 517 L 656.5 517 L 656.5 581.5 C 656.5 586.5 656.5 589 660.5 591 C 669.46875 594.1875 679.0625 595.214844 688.5 594 L 709 594 L 716.5 570 L 690.5 570 C 690.5 570 690.5 570 690.5 565.5 L 690.5 550 L 709.5 550 C 715.988281 550.40625 722.347656 548.042969 727 543.5 C 730.21875 540.644531 732.339844 536.753906 733 532.5 L 736.5 518 L 711 518 L 707.5 528 Z M 702.5 526.5 "/>
</g>
</svg>
